<svg xmlns="http://www.w3.org/2000/svg" viewBox="0 0 512 512">
  <defs>
    <linearGradient id="bg" x1="0" y1="0" x2="1" y2="1">
      <stop offset="0" stop-color="#14221f"/>
      <stop offset="1" stop-color="#0b1110"/>
    </linearGradient>
    <linearGradient id="mark" x1="0" y1="0" x2="1" y2="1">
      <stop offset="0" stop-color="#d9b778"/>
      <stop offset="1" stop-color="#a97837"/>
    </linearGradient>
  </defs>
  <rect width="512" height="512" rx="112" fill="url(#bg)"/>
  <path d="M112 363h91v-24c-48-22-77-72-77-128 0-82 55-139 130-139s130 57 130 139c0 56-29 106-77 128v24h91v77H284v-77c31-20 48-77 48-137 0-55-30-92-76-92s-76 37-76 92c0 60 17 117 48 137v77H112z" fill="url(#mark)"/>
</svg>
